# Blender v3.0.0 OBJ File: 'button_2.blend'
# www.blender.org
mtllib button_2.mtl
o Cylinder
v -0.000000 -0.612807 -1.839909
v -0.000000 0.612807 -1.418841
v 0.798307 -0.612807 -1.657701
v 0.615612 0.612807 -1.278331
v 1.438499 -0.612807 -1.147164
v 1.109294 0.612807 -0.884633
v 1.793778 -0.612807 -0.409418
v 1.383267 0.612807 -0.315722
v 1.793778 -0.612807 0.409418
v 1.383267 0.612807 0.315722
v 1.438499 -0.612807 1.147164
v 1.109294 0.612807 0.884633
v 0.798307 -0.612807 1.657701
v 0.615612 0.612807 1.278331
v -0.000000 -0.612807 1.839909
v -0.000000 0.612807 1.418841
v -0.798307 -0.612807 1.657701
v -0.615612 0.612807 1.278331
v -1.438499 -0.612807 1.147164
v -1.109295 0.612807 0.884632
v -1.793778 -0.612807 0.409418
v -1.383267 0.612807 0.315722
v -1.793778 -0.612807 -0.409418
v -1.383267 0.612807 -0.315722
v -1.438499 -0.612807 -1.147164
v -1.109295 0.612807 -0.884633
v -0.798307 -0.612807 -1.657701
v -0.615612 0.612807 -1.278331
v 0.798307 0.612807 -1.657701
v -0.000000 0.612807 -1.839909
v 1.438499 0.612807 -1.147164
v 1.793778 0.612807 -0.409418
v 1.793778 0.612807 0.409418
v 1.438499 0.612807 1.147164
v 0.798307 0.612807 1.657701
v -0.000000 0.612807 1.839909
v -0.798307 0.612807 1.657701
v -1.438499 0.612807 1.147164
v -1.793778 0.612807 0.409418
v -1.793778 0.612807 -0.409418
v -1.438499 0.612807 -1.147164
v -0.798307 0.612807 -1.657701
v 0.615612 -0.274923 -1.278331
v -0.000000 -0.274923 -1.418841
v 1.109294 -0.274923 -0.884633
v 1.383267 -0.274923 -0.315722
v 1.383267 -0.274923 0.315722
v 1.109294 -0.274923 0.884633
v 0.615612 -0.274923 1.278331
v -0.000000 -0.274923 1.418841
v -0.615612 -0.274923 1.278331
v -1.109295 -0.274923 0.884632
v -1.383267 -0.274923 0.315722
v -1.383267 -0.274923 -0.315722
v -1.109295 -0.274923 -0.884633
v -0.615612 -0.274923 -1.278331
vt 1.000000 1.000000
vt 0.928571 0.500000
vt 1.000000 0.500000
vt 0.928571 1.000000
vt 0.857143 0.500000
vt 0.857143 1.000000
vt 0.785714 0.500000
vt 0.785714 1.000000
vt 0.714286 0.500000
vt 0.714286 1.000000
vt 0.642857 0.500000
vt 0.642857 1.000000
vt 0.571428 0.500000
vt 0.571428 1.000000
vt 0.500000 0.500000
vt 0.500000 1.000000
vt 0.428571 0.500000
vt 0.428571 1.000000
vt 0.357143 0.500000
vt 0.357143 1.000000
vt 0.285714 0.500000
vt 0.285714 1.000000
vt 0.214286 0.500000
vt 0.214286 1.000000
vt 0.142857 0.500000
vt 0.069565 0.208817
vt 0.069565 0.291183
vt 0.069565 0.291183
vt 0.142857 1.000000
vt 0.071428 0.500000
vt 0.071428 1.000000
vt -0.000000 0.500000
vt 0.516017 0.303405
vt 0.645868 0.466233
vt 0.983983 0.303405
vt 0.250000 0.435075
vt 0.354132 0.466233
vt 0.250000 0.490000
vt 0.394698 0.365393
vt 0.330301 0.416747
vt 0.430435 0.291183
vt 0.437640 0.399638
vt 0.430435 0.208817
vt 0.483983 0.303405
vt 0.437640 0.100362
vt 0.483983 0.196595
vt 0.330301 0.083253
vt 0.394698 0.134607
vt 0.250000 0.064925
vt 0.354132 0.033767
vt 0.169699 0.083253
vt 0.250000 0.010000
vt 0.062360 0.100362
vt 0.145868 0.033767
vt 0.105302 0.134607
vt 0.016017 0.196595
vt 0.016017 0.303405
vt 0.105302 0.365393
vt 0.169699 0.416747
vt 0.062360 0.399638
vt 0.145868 0.466233
vt 0.069565 0.208817
vt 0.169699 0.083253
vt 0.430435 0.208817
vt 0.105302 0.365393
vt 0.394698 0.134607
vt 0.169699 0.416747
vt 0.330301 0.083253
vt 0.250000 0.435075
vt 0.250000 0.064925
vt 0.330301 0.416747
vt 0.105302 0.134607
vt 0.394698 0.365393
vt 0.430435 0.291183
vt -0.000000 1.000000
vt 0.750000 0.490000
vt 0.854132 0.466233
vt 0.937640 0.399638
vt 0.983983 0.196595
vt 0.937640 0.100362
vt 0.854132 0.033767
vt 0.750000 0.010000
vt 0.645868 0.033767
vt 0.562360 0.100362
vt 0.516017 0.196595
vt 0.562360 0.399638
vn 0.2225 0.0000 -0.9749
vn 0.6235 0.0000 -0.7818
vn 0.9010 0.0000 -0.4339
vn 1.0000 0.0000 0.0000
vn 0.9010 0.0000 0.4339
vn 0.6235 0.0000 0.7818
vn 0.2225 0.0000 0.9749
vn -0.2225 0.0000 0.9749
vn -0.6235 0.0000 0.7818
vn -0.9010 0.0000 0.4339
vn -1.0000 0.0000 0.0000
vn -0.9010 0.0000 -0.4339
vn -0.6235 0.0000 -0.7818
vn -0.2225 0.0000 -0.9749
vn 0.0000 -1.0000 0.0000
vn 0.0000 1.0000 0.0000
usemtl None
s off
f 30/1/1 3/2/1 1/3/1
f 29/4/2 5/5/2 3/2/2
f 31/6/3 7/7/3 5/5/3
f 32/8/4 9/9/4 7/7/4
f 33/10/5 11/11/5 9/9/5
f 34/12/6 13/13/6 11/11/6
f 35/14/7 15/15/7 13/13/7
f 36/16/8 17/17/8 15/15/8
f 37/18/9 19/19/9 17/17/9
f 38/20/10 21/21/10 19/19/10
f 39/22/11 23/23/11 21/21/11
f 40/24/12 25/25/12 23/23/12
f 22/26/4 54/27/4 24/28/4
f 41/29/13 27/30/13 25/25/13
f 42/31/14 1/32/14 27/30/14
f 23/33/15 27/34/15 7/35/15
f 2/36/16 29/37/16 30/38/16
f 6/39/16 29/37/16 4/40/16
f 8/41/16 31/42/16 6/39/16
f 10/43/16 32/44/16 8/41/16
f 10/43/16 34/45/16 33/46/16
f 14/47/16 34/45/16 12/48/16
f 16/49/16 35/50/16 14/47/16
f 18/51/16 36/52/16 16/49/16
f 18/51/16 38/53/16 37/54/16
f 20/55/16 39/56/16 38/53/16
f 22/26/16 40/57/16 39/56/16
f 26/58/16 40/57/16 24/28/16
f 28/59/16 41/60/16 26/58/16
f 2/36/16 42/61/16 28/59/16
f 53/62/16 51/63/16 47/64/16
f 8/41/11 47/64/11 10/43/11
f 24/28/5 55/65/5 26/58/5
f 10/43/12 48/66/12 12/48/12
f 26/58/6 56/67/6 28/59/6
f 12/48/13 49/68/13 14/47/13
f 28/59/7 44/69/7 2/36/7
f 14/47/14 50/70/14 16/49/14
f 16/49/1 51/63/1 18/51/1
f 2/36/8 43/71/8 4/40/8
f 18/51/2 52/72/2 20/55/2
f 4/40/9 45/73/9 6/39/9
f 20/55/3 53/62/3 22/26/3
f 6/39/10 46/74/10 8/41/10
f 30/1/1 29/4/1 3/2/1
f 29/4/2 31/6/2 5/5/2
f 31/6/3 32/8/3 7/7/3
f 32/8/4 33/10/4 9/9/4
f 33/10/5 34/12/5 11/11/5
f 34/12/6 35/14/6 13/13/6
f 35/14/7 36/16/7 15/15/7
f 36/16/8 37/18/8 17/17/8
f 37/18/9 38/20/9 19/19/9
f 38/20/10 39/22/10 21/21/10
f 39/22/11 40/24/11 23/23/11
f 40/24/12 41/29/12 25/25/12
f 22/26/4 53/62/4 54/27/4
f 41/29/13 42/31/13 27/30/13
f 42/31/14 30/75/14 1/32/14
f 27/34/15 1/76/15 3/77/15
f 3/77/15 5/78/15 7/35/15
f 7/35/15 9/79/15 11/80/15
f 11/80/15 13/81/15 7/35/15
f 13/81/15 15/82/15 7/35/15
f 15/82/15 17/83/15 19/84/15
f 19/84/15 21/85/15 23/33/15
f 23/33/15 25/86/15 27/34/15
f 27/34/15 3/77/15 7/35/15
f 15/82/15 19/84/15 7/35/15
f 19/84/15 23/33/15 7/35/15
f 2/36/16 4/40/16 29/37/16
f 6/39/16 31/42/16 29/37/16
f 8/41/16 32/44/16 31/42/16
f 10/43/16 33/46/16 32/44/16
f 10/43/16 12/48/16 34/45/16
f 14/47/16 35/50/16 34/45/16
f 16/49/16 36/52/16 35/50/16
f 18/51/16 37/54/16 36/52/16
f 18/51/16 20/55/16 38/53/16
f 20/55/16 22/26/16 39/56/16
f 22/26/16 24/28/16 40/57/16
f 26/58/16 41/60/16 40/57/16
f 28/59/16 42/61/16 41/60/16
f 2/36/16 30/38/16 42/61/16
f 45/73/16 43/71/16 44/69/16
f 44/69/16 56/67/16 45/73/16
f 56/67/16 55/65/16 45/73/16
f 55/65/16 54/27/16 53/62/16
f 53/62/16 52/72/16 51/63/16
f 51/63/16 50/70/16 47/64/16
f 50/70/16 49/68/16 47/64/16
f 49/68/16 48/66/16 47/64/16
f 47/64/16 46/74/16 55/65/16
f 46/74/16 45/73/16 55/65/16
f 55/65/16 53/62/16 47/64/16
f 8/41/11 46/74/11 47/64/11
f 24/28/5 54/27/5 55/65/5
f 10/43/12 47/64/12 48/66/12
f 26/58/6 55/65/6 56/67/6
f 12/48/13 48/66/13 49/68/13
f 28/59/7 56/67/7 44/69/7
f 14/47/14 49/68/14 50/70/14
f 16/49/1 50/70/1 51/63/1
f 2/36/8 44/69/8 43/71/8
f 18/51/2 51/63/2 52/72/2
f 4/40/9 43/71/9 45/73/9
f 20/55/3 52/72/3 53/62/3
f 6/39/10 45/73/10 46/74/10
