# Blender v3.0.0 OBJ File: 'table_lab.blend'
# www.blender.org
o Cube
v 3.178849 0.324972 2.328728
v 3.178849 0.331258 2.515259
v 3.433475 0.331258 2.328728
v 3.386750 0.334043 2.481030
v 3.386750 0.334043 -2.481030
v 3.178849 0.331258 -2.515259
v 3.178849 0.324972 -2.328728
v 3.433475 0.331258 -2.328728
v 3.178849 0.856014 -2.592523
v 3.178849 0.877476 -2.328728
v 3.538944 0.856014 -2.328728
v 3.178849 0.871190 -2.515259
v 3.386750 0.868405 -2.481030
v 3.433475 0.871190 -2.328728
v 3.433475 0.856014 -2.515259
v 3.178849 0.455618 -2.328728
v 3.178849 0.477081 -2.592523
v 3.538944 0.477081 -2.328728
v 3.178849 0.461905 -2.515259
v 3.386750 0.464689 -2.481030
v 3.433475 0.477081 -2.515259
v 3.433475 0.461905 -2.328728
v 3.538944 0.856014 2.328728
v 3.178849 0.877476 2.328728
v 3.178849 0.856014 2.592523
v 3.433475 0.871190 2.328728
v 3.386750 0.868405 2.481030
v 3.178849 0.871190 2.515259
v 3.433475 0.856014 2.515259
v 3.538944 0.477081 2.328728
v 3.178849 0.477081 2.592523
v 3.178849 0.455618 2.328728
v 3.433475 0.477081 2.515259
v 3.386750 0.464689 2.481030
v 3.178849 0.461905 2.515259
v 3.433475 0.461905 2.328728
v -3.178849 0.856014 -2.592523
v -3.538944 0.856014 -2.328728
v -3.178849 0.877476 -2.328728
v -3.433475 0.856014 -2.515259
v -3.386750 0.868405 -2.481030
v -3.433475 0.871190 -2.328728
v -3.178849 0.871190 -2.515259
v -3.538944 0.477081 -2.328728
v -3.178849 0.477081 -2.592523
v -3.178849 0.455618 -2.328728
v -3.433475 0.477081 -2.515259
v -3.386750 0.464689 -2.481030
v -3.178849 0.461905 -2.515259
v -3.433475 0.461905 -2.328728
v -3.538944 0.856014 2.328728
v -3.178849 0.856014 2.592523
v -3.178849 0.877476 2.328728
v -3.433475 0.856014 2.515259
v -3.386750 0.868405 2.481030
v -3.178849 0.871190 2.515259
v -3.433475 0.871190 2.328728
v -3.178849 0.455618 2.328728
v -3.178849 0.477081 2.592523
v -3.538944 0.477081 2.328728
v -3.178849 0.461905 2.515259
v -3.386750 0.464689 2.481030
v -3.433475 0.477081 2.515259
v -3.433475 0.461905 2.328728
v -3.386750 0.334043 -2.481030
v -3.433475 0.331258 -2.328728
v -3.178849 0.331258 -2.515259
v -3.178849 0.324972 -2.328728
v -3.433475 0.331258 2.328728
v -3.178849 0.324972 2.328728
v -3.178849 0.331258 2.515259
v -3.386750 0.334043 2.481030
v 3.178849 -3.284136 -2.328728
v 3.178849 -3.277850 -2.515259
v -3.386750 -3.275065 -2.481030
v -3.433475 -3.277850 -2.328728
v -3.178849 -3.284136 -2.328728
v 3.433475 -3.277850 -2.328728
v 3.178849 -3.277850 2.515259
v 3.178849 -3.284136 2.328728
v 3.386750 -3.275065 -2.481030
v 3.386750 -3.275065 2.481030
v -3.178849 -3.277850 -2.515259
v 3.433475 -3.277850 2.328728
v -3.433475 -3.277850 2.328728
v -3.178849 -3.284136 2.328728
v -3.178849 -3.277850 2.515259
v -3.386750 -3.275065 2.481030
vt 0.362281 0.512719
vt 0.137719 0.737281
vt 0.137719 0.512719
vt 0.612281 0.012719
vt 0.387719 0.237281
vt 0.387719 0.012719
vt 0.375000 0.987281
vt 0.380376 1.000000
vt 0.375000 0.987281
vt 0.612281 0.762719
vt 0.387719 0.987281
vt 0.387719 0.762719
vt 0.862281 0.512719
vt 0.637719 0.737281
vt 0.637719 0.512719
vt 0.612281 0.512719
vt 0.387719 0.737281
vt 0.387719 0.512719
vt 0.612281 0.487281
vt 0.623208 0.500000
vt 0.612281 0.500000
vt 0.637719 0.500000
vt 0.625000 0.512719
vt 0.362281 0.512719
vt 0.387719 0.487281
vt 0.375000 0.501792
vt 0.375000 0.487281
vt 0.387719 0.500000
vt 0.612281 0.737281
vt 0.625000 0.748208
vt 0.612281 0.750000
vt 0.625000 0.737281
vt 0.625000 0.762719
vt 0.376792 0.750000
vt 0.375000 0.737281
vt 0.387719 0.750000
vt 0.375000 0.987281
vt 0.375000 0.762719
vt 0.375000 0.762719
vt 0.612281 0.262719
vt 0.619624 0.250000
vt 0.625000 0.262719
vt 0.612281 0.237281
vt 0.625000 0.244624
vt 0.612281 0.250000
vt 0.869624 0.500000
vt 0.875000 0.512719
vt 0.380376 0.250000
vt 0.375000 0.237281
vt 0.387719 0.262719
vt 0.375000 0.255376
vt 0.387719 0.250000
vt 0.376792 0.750000
vt 0.375000 0.737281
vt 0.619624 0.000000
vt 0.625000 0.012719
vt 0.612281 0.987281
vt 0.625000 0.994624
vt 0.612281 1.000000
vt 0.862281 0.737281
vt 0.875000 0.744624
vt 0.862281 0.750000
vt 0.362281 0.737281
vt 0.137719 0.737281
vt 0.380376 1.000000
vt 0.375000 0.005376
vt 0.387719 0.000000
vt 0.375000 0.012719
vt 0.375000 0.005376
vt 0.375000 0.262719
vt 0.375000 0.255376
vt 0.387719 1.000000
vt 0.612281 0.000000
vt 0.637719 0.750000
vt 0.625000 0.987281
vt 0.375000 0.012719
vt 0.875000 0.737281
vt 0.625000 0.237281
vt 0.862281 0.500000
vt 0.625000 0.487281
vt 0.380376 1.000000
vt 0.375000 0.512719
vt 0.375000 0.512719
vt 0.375000 0.512719
vt 0.375000 0.262719
vt 0.375000 0.255376
vt 0.137719 0.750000
vt 0.137719 0.737281
vt 0.125000 0.512719
vt 0.137719 0.512719
vt 0.362281 0.500000
vt 0.362281 0.737281
vt 0.137719 0.750000
vt 0.375000 0.501792
vt 0.375000 0.487281
vt 0.380376 0.250000
vt 0.375000 0.237281
vt 0.362281 0.512719
vt 0.375000 0.501792
vt 0.362281 0.737281
vt 0.376792 0.750000
vt 0.362281 0.750000
vt 0.137719 0.512719
vt 0.125000 0.505376
vt 0.137719 0.500000
vt 0.130376 0.750000
vt 0.125000 0.737281
vt 0.375000 0.737281
vt 0.362281 0.750000
vt 0.375000 0.005376
vt 0.137719 0.500000
vt 0.362281 0.500000
vt 0.380376 0.250000
vt 0.375000 0.237281
vt 0.125000 0.737281
vt 0.375000 0.487281
vt 0.125000 0.512719
vt 0.375000 0.262719
vt 0.375000 0.012719
vt 0.375000 0.762719
vn 0.0000 -1.0000 0.0000
vn -1.0000 0.0000 0.0000
vn -0.1625 0.0000 0.9867
vn 0.0000 0.0000 1.0000
vn 0.0000 1.0000 0.0000
vn 1.0000 0.0000 0.0000
vn 0.0750 0.9660 -0.2473
vn 0.0189 0.9993 -0.0337
vn 0.1422 0.9879 -0.0617
vn 0.0448 -0.9803 -0.1925
vn 0.1833 -0.9776 -0.1037
vn 0.1833 0.9776 0.1037
vn 0.0247 0.9994 0.0258
vn 0.0448 0.9803 0.1925
vn 0.1422 -0.9879 0.0617
vn 0.0750 -0.9660 0.2473
vn -0.0448 0.9803 -0.1925
vn -0.1833 0.9776 -0.1037
vn -0.0247 0.9994 -0.0258
vn -0.1422 -0.9879 -0.0617
vn -0.0750 -0.9660 -0.2473
vn 0.9560 0.0000 0.2933
vn -0.1422 0.9879 0.0617
vn -0.0750 0.9660 0.2473
vn -0.0189 0.9993 0.0337
vn 0.0000 0.0000 -1.0000
vn -0.0448 -0.9803 0.1925
vn -0.1833 -0.9776 0.1037
vn -0.9560 0.0000 0.2933
vn -0.1424 -0.9898 0.0000
vn -0.1625 0.0000 -0.9867
vn 0.0000 -0.9812 -0.1927
vn 0.8705 0.0000 -0.4922
vn 0.2904 0.0000 -0.9569
vn -0.2904 0.0000 0.9569
vn -0.8705 0.0000 0.4922
vn 0.2904 0.0000 0.9569
vn 0.8705 0.0000 0.4922
vn -0.2904 0.0000 -0.9569
vn -0.8705 0.0000 -0.4922
vn 0.0000 0.9994 0.0337
vn 0.0000 0.9812 0.1927
vn 0.0247 0.9997 0.0000
vn 0.1424 0.9898 0.0000
vn 0.0000 -0.9813 0.1927
vn -0.0247 0.9997 0.0000
vn -0.1424 0.9898 0.0000
vn 0.0000 0.9994 -0.0337
vn 0.0000 0.9812 -0.1927
vn 0.1424 -0.9898 0.0000
vn -0.0247 -0.9997 0.0000
vn 0.0000 -0.9994 -0.0337
vn 0.0000 -0.9994 0.0337
vn 0.0247 -0.9997 0.0000
vn 0.1625 0.0000 0.9867
vn 0.1625 0.0000 -0.9867
vn -0.9560 0.0000 -0.2933
vn 0.9560 0.0000 -0.2933
vn 0.0247 -0.9994 -0.0258
vn 0.0189 -0.9993 0.0337
vn -0.0189 -0.9993 -0.0337
vn -0.0247 -0.9994 0.0258
vn 0.0448 0.9803 -0.1925
vn 0.0247 0.9994 -0.0258
vn 0.1833 0.9776 -0.1037
vn 0.0750 -0.9660 -0.2473
vn 0.1422 -0.9879 -0.0617
vn 0.1422 0.9879 0.0617
vn 0.0189 0.9993 0.0337
vn 0.0750 0.9660 0.2473
vn 0.1833 -0.9776 0.1037
vn 0.0448 -0.9803 0.1925
vn -0.0750 0.9660 -0.2473
vn -0.1422 0.9879 -0.0617
vn -0.0189 0.9993 -0.0337
vn -0.1833 -0.9776 -0.1037
vn -0.0448 -0.9803 -0.1925
vn -0.1833 0.9776 0.1037
vn -0.0448 0.9803 0.1925
vn -0.0247 0.9994 0.0258
vn -0.0750 -0.9660 0.2473
vn -0.1422 -0.9879 0.0617
vn 0.0000 0.9813 0.1927
vn 0.0189 -0.9993 -0.0337
vn 0.0247 -0.9994 0.0258
vn -0.0247 -0.9994 -0.0258
vn -0.0189 -0.9993 0.0337
s off
f 16/1/1 58/2/1 46/3/1
f 51/4/2 44/5/2 60/6/2
f 71/7/3 88/8/3 87/9/3
f 25/10/4 59/11/4 31/12/4
f 39/13/5 24/14/5 10/15/5
f 11/16/6 30/17/6 18/18/6
f 9/19/7 13/20/7 15/21/7
f 10/15/8 13/20/8 12/22/8
f 11/16/9 13/20/9 14/23/9
f 46/3/4 7/24/4 16/1/4
f 17/25/10 20/26/10 19/27/10
f 18/18/11 20/26/11 21/28/11
f 23/29/12 27/30/12 29/31/12
f 24/14/13 27/30/13 26/32/13
f 25/10/14 27/30/14 28/33/14
f 30/17/15 34/34/15 36/35/15
f 31/12/16 34/34/16 33/36/16
f 61/37/4 2/38/4 35/39/4
f 37/40/17 41/41/17 43/42/17
f 38/43/18 41/44/18 40/45/18
f 39/13/19 41/46/19 42/47/19
f 44/5/20 48/48/20 50/49/20
f 45/50/21 48/51/21 47/52/21
f 36/35/22 4/53/22 3/54/22
f 51/4/23 55/55/23 57/56/23
f 52/57/24 55/58/24 54/59/24
f 53/60/25 55/61/25 56/62/25
f 32/63/26 70/64/26 58/2/26
f 59/11/27 62/65/27 61/37/27
f 60/6/28 62/66/28 63/67/28
f 64/68/29 72/69/29 62/66/29
f 64/68/30 44/5/30 50/49/30
f 49/70/31 65/71/31 48/51/31
f 49/70/32 17/25/32 19/27/32
f 18/18/33 15/21/33 11/16/33
f 21/28/34 9/19/34 15/21/34
f 52/57/35 63/72/35 59/11/35
f 54/73/36 60/6/36 63/67/36
f 31/12/37 29/31/37 25/10/37
f 33/36/38 23/29/38 29/31/38
f 45/50/39 40/45/39 37/40/39
f 47/52/40 38/43/40 40/45/40
f 53/60/41 28/74/41 24/14/41
f 56/75/42 25/10/42 28/33/42
f 24/14/43 14/23/43 10/15/43
f 26/32/44 11/16/44 14/23/44
f 50/49/2 69/76/2 64/68/2
f 35/39/45 59/11/45 61/37/45
f 39/13/46 57/77/46 53/60/46
f 42/78/47 51/4/47 57/56/47
f 10/15/48 43/79/48 39/13/48
f 12/80/49 37/40/49 43/42/49
f 61/37/3 72/81/3 71/7/3
f 22/82/50 30/17/50 36/35/50
f 37/40/26 17/25/26 45/50/26
f 7/24/4 78/83/4 8/84/4
f 67/85/31 75/86/31 65/71/31
f 70/64/6 87/87/6 86/88/6
f 70/64/51 66/89/51 68/90/51
f 68/90/52 6/91/52 7/24/52
f 1/92/53 71/93/53 70/64/53
f 7/24/54 3/54/54 1/92/54
f 16/1/2 1/92/2 32/63/2
f 19/27/26 67/85/26 49/70/26
f 36/35/6 8/84/6 22/82/6
f 35/39/55 4/53/55 34/34/55
f 19/27/56 5/94/56 6/95/56
f 50/49/57 65/96/57 66/97/57
f 22/82/58 5/94/58 20/26/58
f 58/2/6 68/90/6 46/3/6
f 73/98/59 81/99/59 78/83/59
f 80/100/60 82/101/60 79/102/60
f 77/103/61 75/104/61 83/105/61
f 86/88/62 88/106/62 85/107/62
f 1/92/26 84/108/26 80/100/26
f 1/92/2 79/102/2 2/109/2
f 69/76/29 88/110/29 72/69/29
f 8/84/58 81/99/58 5/94/58
f 2/38/55 82/101/55 4/53/55
f 68/90/6 83/105/6 67/111/6
f 7/24/2 74/112/2 73/98/2
f 3/54/22 82/101/22 84/108/22
f 66/97/57 75/113/57 76/114/57
f 70/64/26 85/107/26 69/115/26
f 6/95/56 81/99/56 74/116/56
f 68/90/4 76/117/4 77/103/4
f 16/1/1 32/63/1 58/2/1
f 51/4/2 38/43/2 44/5/2
f 71/7/3 72/81/3 88/8/3
f 25/10/4 52/57/4 59/11/4
f 39/13/5 53/60/5 24/14/5
f 11/16/6 23/29/6 30/17/6
f 9/19/63 12/80/63 13/20/63
f 10/15/64 14/23/64 13/20/64
f 11/16/65 15/21/65 13/20/65
f 46/3/4 68/90/4 7/24/4
f 17/25/66 21/28/66 20/26/66
f 18/18/67 22/82/67 20/26/67
f 23/29/68 26/32/68 27/30/68
f 24/14/69 28/74/69 27/30/69
f 25/10/70 29/31/70 27/30/70
f 30/17/71 33/36/71 34/34/71
f 31/12/72 35/39/72 34/34/72
f 61/37/4 71/7/4 2/38/4
f 37/40/73 40/45/73 41/41/73
f 38/43/74 42/78/74 41/44/74
f 39/13/75 43/79/75 41/46/75
f 44/5/76 47/52/76 48/48/76
f 45/50/77 49/70/77 48/51/77
f 36/35/22 34/34/22 4/53/22
f 51/4/78 54/73/78 55/55/78
f 52/57/79 56/75/79 55/58/79
f 53/60/80 57/77/80 55/61/80
f 32/63/26 1/92/26 70/64/26
f 59/11/81 63/72/81 62/65/81
f 60/6/82 64/68/82 62/66/82
f 64/68/29 69/76/29 72/69/29
f 64/68/30 60/6/30 44/5/30
f 49/70/31 67/85/31 65/71/31
f 49/70/32 45/50/32 17/25/32
f 18/18/33 21/28/33 15/21/33
f 21/28/34 17/25/34 9/19/34
f 52/57/35 54/59/35 63/72/35
f 54/73/36 51/4/36 60/6/36
f 31/12/37 33/36/37 29/31/37
f 33/36/38 30/17/38 23/29/38
f 45/50/39 47/52/39 40/45/39
f 47/52/40 44/5/40 38/43/40
f 53/60/41 56/62/41 28/74/41
f 56/75/83 52/57/83 25/10/83
f 24/14/43 26/32/43 14/23/43
f 26/32/44 23/29/44 11/16/44
f 50/49/2 66/97/2 69/76/2
f 35/39/45 31/12/45 59/11/45
f 39/13/46 42/47/46 57/77/46
f 42/78/47 38/43/47 51/4/47
f 10/15/48 12/22/48 43/79/48
f 12/80/49 9/19/49 37/40/49
f 61/37/3 62/65/3 72/81/3
f 22/82/50 18/18/50 30/17/50
f 37/40/26 9/19/26 17/25/26
f 7/24/4 73/98/4 78/83/4
f 67/85/31 83/118/31 75/86/31
f 70/64/6 71/93/6 87/87/6
f 70/64/51 69/115/51 66/89/51
f 68/90/52 67/111/52 6/91/52
f 1/92/53 2/109/53 71/93/53
f 7/24/54 8/84/54 3/54/54
f 16/1/2 7/24/2 1/92/2
f 19/27/26 6/95/26 67/85/26
f 36/35/6 3/54/6 8/84/6
f 35/39/55 2/38/55 4/53/55
f 19/27/56 20/26/56 5/94/56
f 50/49/57 48/48/57 65/96/57
f 22/82/58 8/84/58 5/94/58
f 58/2/6 70/64/6 68/90/6
f 73/98/84 74/112/84 81/99/84
f 80/100/85 84/108/85 82/101/85
f 77/103/86 76/117/86 75/104/86
f 86/88/87 87/87/87 88/106/87
f 1/92/26 3/54/26 84/108/26
f 1/92/2 80/100/2 79/102/2
f 69/76/29 85/119/29 88/110/29
f 8/84/58 78/83/58 81/99/58
f 2/38/55 79/120/55 82/101/55
f 68/90/6 77/103/6 83/105/6
f 7/24/2 6/91/2 74/112/2
f 3/54/22 4/53/22 82/101/22
f 66/97/57 65/96/57 75/113/57
f 70/64/26 86/88/26 85/107/26
f 6/95/56 5/94/56 81/99/56
f 68/90/4 66/89/4 76/117/4
