# Blender v3.0.0 OBJ File: 'door_lab.blend'
# www.blender.org
v 0.285792 3.560448 -2.779888
v 0.285792 -3.183719 -2.779888
v -0.448227 3.694785 -2.913456
v -0.448227 -3.316522 -2.913456
v 0.285792 3.548244 -0.653920
v -0.448227 -3.330131 -0.542885
v -0.448227 -2.487740 -1.866927
v -0.448227 -1.085563 -1.837158
v -0.448227 3.681176 -0.542885
v 0.285792 -2.560074 -2.002061
v 0.285792 -3.193903 -1.005828
v 0.285792 1.105068 -0.197295
v 0.285792 -0.078646 -0.208032
v 0.285792 -1.003968 -1.969023
v -0.448227 1.116842 -0.063616
v -0.448227 -0.159730 -0.075195
v 0.285792 3.694785 -2.913456
v 0.285792 3.681176 -0.542885
v 0.285792 -3.316522 -2.913456
v 0.285792 -2.487740 -1.866927
v 0.285792 -3.330131 -0.542885
v 0.285792 1.116842 -0.063616
v 0.285792 -0.159730 -0.075195
v 0.285792 -1.085563 -1.837158
v -0.096310 3.473202 -2.693141
v -0.096310 3.461909 -0.726034
v -0.096310 -3.097469 -2.693141
v -0.096310 -2.607051 -2.089824
v -0.096310 -3.105429 -1.306491
v -0.096310 1.097422 -0.284115
v -0.096310 -0.025985 -0.294305
v -0.096310 -0.950975 -2.054664
v -0.096310 3.560448 -2.779888
v -0.096310 3.548244 -0.653920
v -0.096310 -3.183719 -2.779888
v -0.096310 -2.560074 -2.002061
v -0.096310 -3.193903 -1.005828
v -0.096310 1.105068 -0.197295
v -0.096310 -0.078646 -0.208032
v -0.096310 -1.003968 -1.969023
v 0.323301 3.473202 -2.693141
v 0.323301 3.461909 -0.726034
v 0.323301 -3.097469 -2.693141
v 0.323301 -2.607051 -2.089824
v 0.323301 -3.105429 -1.306491
v 0.323301 1.097422 -0.284115
v 0.323301 -0.025985 -0.294305
v 0.323301 -0.950975 -2.054664
vt 0.500778 0.619962
vt 0.618967 0.618306
vt 0.618967 0.618306
vt 0.421875 0.125000
vt 0.625000 0.250000
vt 0.375000 0.250000
vt 0.375000 0.500000
vt 0.125000 0.625000
vt 0.125000 0.500000
vt 0.875000 0.500000
vt 0.625000 0.625000
vt 0.625000 0.500000
vt 0.500000 0.125000
vt 0.625000 0.125000
vt 0.437500 0.125000
vt 0.500000 0.625000
vt 0.437500 0.625000
vt 0.406250 0.125000
vt 0.421875 0.625000
vt 0.375000 0.125000
vt 0.406250 0.625000
vt 0.619852 0.506948
vt 0.380415 0.609998
vt 0.375000 0.625000
vt 0.443389 0.621153
vt 0.402720 0.591246
vt 0.379721 0.508581
vt 0.432942 0.596226
vt 0.402720 0.591246
vt 0.500778 0.619962
vt 0.432942 0.596226
vt 0.443389 0.621153
vt 0.380415 0.609998
vt 0.619852 0.506948
vt 0.379721 0.508581
vt 0.616487 0.511443
vt 0.615106 0.614029
vt 0.383664 0.597267
vt 0.447349 0.618251
vt 0.400727 0.573250
vt 0.382815 0.514279
vt 0.501349 0.616738
vt 0.439702 0.579662
vt 0.382815 0.514279
vt 0.616487 0.511443
vt 0.439702 0.579662
vt 0.615106 0.614029
vt 0.400727 0.573250
vt 0.501349 0.616738
vt 0.447349 0.618251
vt 0.383664 0.597267
vt 0.875000 0.625000
vn 0.0000 -0.1837 -0.9830
vn -1.0000 0.0000 0.0000
vn 0.0000 -1.0000 -0.0057
vn 0.0000 1.0000 0.0057
vn 0.0000 0.0000 -1.0000
vn 0.0000 0.1837 0.9830
vn 0.0000 -0.0091 1.0000
vn 0.0000 -0.8852 0.4651
vn 0.0000 -0.0212 0.9998
vn 0.0000 0.8437 0.5368
vn 1.0000 0.0000 0.0000
vn 0.0000 -0.8437 -0.5368
vn 0.0000 0.0091 -1.0000
vn 0.0000 0.0212 -0.9998
vn 0.0000 0.8852 -0.4651
vn 0.0000 0.0000 1.0000
s off
f 12/1/1 34/2/1 5/3/1
f 8/4/2 3/5/2 4/6/2
f 19/7/3 6/8/3 4/9/3
f 3/10/4 18/11/4 17/12/4
f 3/5/5 19/7/5 4/6/5
f 15/13/6 18/11/6 9/14/6
f 16/15/7 22/16/7 15/13/7
f 8/4/8 23/17/8 16/15/8
f 7/18/9 24/19/9 8/4/9
f 6/20/10 20/21/10 7/18/10
f 1/22/11 18/11/11 5/3/11
f 1/22/11 19/7/11 17/12/11
f 11/23/11 20/21/11 21/24/11
f 13/25/11 22/16/11 23/17/11
f 10/26/11 24/19/11 20/21/11
f 11/23/11 19/7/11 2/27/11
f 5/3/11 22/16/11 12/1/11
f 13/25/11 24/19/11 14/28/11
f 11/23/12 36/29/12 10/26/12
f 13/25/13 38/30/13 12/1/13
f 10/26/14 40/31/14 14/28/14
f 14/28/15 39/32/15 13/25/15
f 2/27/4 37/33/4 11/23/4
f 5/3/3 33/34/3 1/22/3
f 1/22/16 35/35/16 2/27/16
f 25/36/11 34/2/11 26/37/11
f 25/36/11 35/35/11 33/34/11
f 29/38/11 36/29/11 37/33/11
f 31/39/11 38/30/11 39/32/11
f 28/40/11 40/31/11 36/29/11
f 29/38/11 35/35/11 27/41/11
f 26/37/11 38/30/11 30/42/11
f 31/39/11 40/31/11 32/43/11
f 43/44/11 41/45/11 48/46/11
f 30/42/6 42/47/6 26/37/6
f 29/38/10 44/48/10 28/40/10
f 31/39/7 46/49/7 30/42/7
f 28/40/9 48/46/9 32/43/9
f 32/43/8 47/50/8 31/39/8
f 27/41/3 45/51/3 29/38/3
f 26/37/4 41/45/4 25/36/4
f 25/36/5 43/44/5 27/41/5
f 12/1/1 38/30/1 34/2/1
f 8/4/2 16/15/2 15/13/2
f 15/13/2 9/14/2 3/5/2
f 4/6/2 6/20/2 7/18/2
f 8/4/2 15/13/2 3/5/2
f 4/6/2 7/18/2 8/4/2
f 19/7/3 21/24/3 6/8/3
f 3/10/4 9/52/4 18/11/4
f 3/5/5 17/12/5 19/7/5
f 15/13/6 22/16/6 18/11/6
f 16/15/7 23/17/7 22/16/7
f 8/4/8 24/19/8 23/17/8
f 7/18/9 20/21/9 24/19/9
f 6/20/10 21/24/10 20/21/10
f 1/22/11 17/12/11 18/11/11
f 1/22/11 2/27/11 19/7/11
f 11/23/11 10/26/11 20/21/11
f 13/25/11 12/1/11 22/16/11
f 10/26/11 14/28/11 24/19/11
f 11/23/11 21/24/11 19/7/11
f 5/3/11 18/11/11 22/16/11
f 13/25/11 23/17/11 24/19/11
f 11/23/12 37/33/12 36/29/12
f 13/25/13 39/32/13 38/30/13
f 10/26/14 36/29/14 40/31/14
f 14/28/15 40/31/15 39/32/15
f 2/27/4 35/35/4 37/33/4
f 5/3/3 34/2/3 33/34/3
f 1/22/16 33/34/16 35/35/16
f 25/36/11 33/34/11 34/2/11
f 25/36/11 27/41/11 35/35/11
f 29/38/11 28/40/11 36/29/11
f 31/39/11 30/42/11 38/30/11
f 28/40/11 32/43/11 40/31/11
f 29/38/11 37/33/11 35/35/11
f 26/37/11 34/2/11 38/30/11
f 31/39/11 39/32/11 40/31/11
f 41/45/11 42/47/11 46/49/11
f 46/49/11 47/50/11 48/46/11
f 44/48/11 45/51/11 43/44/11
f 41/45/11 46/49/11 48/46/11
f 48/46/11 44/48/11 43/44/11
f 30/42/6 46/49/6 42/47/6
f 29/38/10 45/51/10 44/48/10
f 31/39/7 47/50/7 46/49/7
f 28/40/9 44/48/9 48/46/9
f 32/43/8 48/46/8 47/50/8
f 27/41/3 43/44/3 45/51/3
f 26/37/4 42/47/4 41/45/4
f 25/36/5 41/45/5 43/44/5
